<?xml version="1.0" ?>

<!-- Uploaded to: SVG Repo, www.svgrepo.com, Generator: SVG Repo Mixer Tools -->
<svg fill="#000000" width="8px" height="8px" viewBox="0 0 512 512" version="1.1" xml:space="preserve" xmlns="http://www.w3.org/2000/svg" xmlns:xlink="http://www.w3.org/1999/xlink">

<g id="travel-suitcase-heart-love-valentine">

<path d="M376,128h-16v-16c0-13.234-10.766-24-24-24V72c0-17.673-14.327-32-32-32h-96c-17.673,0-32,14.327-32,32v16   c-13.234,0-24,10.766-24,24v16h-16c-17.673,0-32,14.327-32,32v280c0,17.673,14.327,32,32,32h240c17.673,0,32-14.327,32-32V160   C408,142.327,393.673,128,376,128z M208,80c0-4.418,3.582-8,8-8h80c4.418,0,8,3.582,8,8v8c-13.234,0-24,10.766-24,24v16h-48v-16   c0-13.234-10.766-24-24-24V80z M264,176v32c0,4.422-3.582,8-8,8s-8-3.578-8-8v-32c0-4.422,3.582-8,8-8S264,171.578,264,176z    M160,424c0,4.422-3.582,8-8,8s-8-3.578-8-8V176c0-4.422,3.582-8,8-8s8,3.578,8,8V424z M168,112c0-4.414,3.59-8,8-8h32   c4.41,0,8,3.586,8,8v16h-48V112z M264,424c0,4.422-3.582,8-8,8s-8-3.578-8-8v-32c0-4.422,3.582-8,8-8s8,3.578,8,8V424z    M301.762,305.63l-32.5,32.855c-7.318,7.398-19.204,7.398-26.522,0l-32.5-32.855c-11.85-11.979-13.889-31.229-3.614-44.605   c12.415-16.161,35.529-17.243,49.375-3.245c13.847-13.998,36.961-12.917,49.376,3.245C315.651,274.4,313.611,293.65,301.762,305.63   z M296,128v-16c0-4.414,3.59-8,8-8h32c4.41,0,8,3.586,8,8v16H296z M368,424c0,4.422-3.582,8-8,8s-8-3.578-8-8V176   c0-4.422,3.582-8,8-8s8,3.578,8,8V424z"/>

</g>

<g id="Layer_1"/>

</svg>